<?xml version="1.0" encoding="utf-8"?>
<!-- Generator: Adobe Illustrator 22.1.0, SVG Export Plug-In . SVG Version: 6.00 Build 0)  -->
<svg version="1.1" id="Layer_1" xmlns="http://www.w3.org/2000/svg" xmlns:xlink="http://www.w3.org/1999/xlink" x="0px" y="0px"
	 viewBox="0 0 90.9 309.8" style="enable-background:new 0 0 90.9 309.8;" xml:space="preserve">
<style type="text/css">
	.st0{fill:#FF8E8C;}
	.st1{display:none;opacity:0.4;fill:#FF8E8C;}
	.st2{opacity:0.4;fill:#FF8E8C;}
	.st3{clip-path:url(#SVGID_3_);fill:url(#SVGID_4_);}
	.st4{fill:#FFFFFF;}
	.st5{fill:url(#SVGID_5_);}
</style>
<rect x="0" y="-82.5" class="st0" width="81" height="74.8"/>
<path class="st1" d="M20.8-7.6H2.3C1-7.6,0-8.7,0-9.9v-18.7C0-30,1-31,2.3-31h18.5c1.3,0,2.3,1.1,2.3,2.3v18.7
	C23.1-8.7,22-7.6,20.8-7.6z M18.5-26.4H4.6v14h13.8V-26.4z"/>
<path class="st1" d="M20.8-59.2H2.3C1-59.2,0-60.3,0-61.5v-18.7c0-1.3,1.1-2.3,2.3-2.3h18.5c1.3,0,2.3,1.1,2.3,2.3v18.7
	C23.1-60.3,22.1-59.2,20.8-59.2z M18.5-77.9H4.6v14h13.8V-77.9z"/>
<path class="st1" d="M78.7-7.7H60.1c-1.3,0-2.3-1.1-2.3-2.3v-18.7c0-1.3,1.1-2.3,2.3-2.3h18.6c1.3,0,2.3,1.1,2.3,2.3V-10
	C81.1-8.8,80-7.7,78.7-7.7z M76.4-26.4h-14v14h13.9L76.4-26.4L76.4-26.4z"/>
<path class="st2" d="M13.9-17H9.3v-4.7h4.6V-17z M13.9-68.5H9.3v-4.7h4.6V-68.5z M71.7-17.1H67v-4.7h4.6V-17.1z M78.7-66.2H50.4
	v-4.7h26v-7H59.8v-4.7h18.9c1.3,0,2.3,1.1,2.3,2.3v11.8C81.1-67.3,80-66.2,78.7-66.2z M46.2-66.2h-4.6v-16.4h4.6V-66.2z M55.5-77.9
	h-4.6v-4.7h4.6V-77.9z M48.5-7.6h-9.2C38-7.6,37-8.7,37-9.9v-9.4h-4.6v11.7h-4.6v-14c0-1.3,1.1-2.3,2.3-2.3h9.3
	c1.3,0,2.3,1.1,2.3,2.3v9.3h4.6V-24h4.6v14.1C50.9-8.7,49.8-7.6,48.5-7.6z M51.2-45.1v14h-5v-16.4c0-1.3,1.1-2.3,2.4-2.3h32.2v4.7
	H51.2z M27.7-31.1v-4.7h-6.9v-4.7h9.3c1.3,0,2.3,1.1,2.3,2.3v7L27.7-31.1z M6.9-35.8H0v-4.7h6.9V-35.8z M16.2-35.8h-4.6v-4.7h4.6
	V-35.8z M80.8-35.8h-4.6v-4.7h4.6V-35.8z M69.3-35.8H55.5v-4.7h13.8V-35.8z M32.4-56.8c-1.3,0-2.3-1.1-2.3-2.3v-23.4h4.6v21H81v4.7
	H32.4z M41.6-31.1h-4.6v-11.7h4.6V-31.1z M25.4-45.1H0v-4.7h23.1v-4.7h4.6v7C27.8-46.1,26.7-45.1,25.4-45.1z M41.6-47.5h-4.6v-4.7
	h4.6V-47.5z"/>
<g>
	<defs>
		<path id="SVGID_1_" d="M20.8,75H2.3C1,75,0,73.9,0,72.7V54c0-1.3,1.1-2.3,2.3-2.3h18.5c1.3,0,2.3,1.1,2.3,2.3v18.7
			C23.1,73.9,22.1,75,20.8,75z M18.5,56.3H4.6v14h13.8V56.3z M20.9,23.4H2.3C1,23.4,0,22.4,0,21.1V2.4c0-1.3,1.1-2.3,2.3-2.3h18.5
			c1.3,0,2.3,1.1,2.3,2.3v18.7C23.1,22.4,22.1,23.4,20.9,23.4z M18.5,4.7H4.7v14h13.8V4.7z M77.8,74.9H59.2c-1.3,0-2.3-1.1-2.3-2.3
			V53.9c0-1.3,1.1-2.3,2.3-2.3h18.6c1.3,0,2.3,1.1,2.3,2.3v18.7C80.1,73.8,79.1,74.9,77.8,74.9z M75.5,56.2h-14v14h13.9L75.5,56.2
			L75.5,56.2z M23,80.8v18.7c0,1.2-1,2.3-2.3,2.3H2.3c-1.2,0-2.3-1-2.3-2.3l0-18.7c0-1.2,1.1-2.3,2.3-2.3h18.6
			C22.1,78.5,23.1,79.6,23,80.8z M18.5,83.2H4.6v14h13.8V83.2z M23,132.4v18.7c0,1.2-1,2.3-2.3,2.3H2.3c-1.2,0-2.3-1-2.3-2.3l0-18.7
			c0-1.2,1-2.3,2.3-2.3h18.6C22.1,130.1,23.1,131.1,23,132.4z M18.5,134.8H4.7v14h13.8V134.8z M20.8,232H2.3C1,232,0,230.9,0,229.7
			V211c0-1.3,1.1-2.3,2.3-2.3h18.5c1.3,0,2.3,1.1,2.3,2.3v18.7C23.1,230.9,22.1,232,20.8,232z M18.5,213.3H4.6v14h13.8V213.3z
			 M23,237.1v18.7c0,1.2-1,2.3-2.3,2.3H2.3c-1.2,0-2.3-1-2.3-2.3l0-18.7c0-1.2,1.1-2.3,2.3-2.3h18.6C22.1,234.8,23.1,235.8,23,237.1
			z M18.5,239.5H4.6v14h13.8V239.5z M23,288.6v18.7c0,1.2-1,2.3-2.3,2.3H2.3c-1.2,0-2.3-1-2.3-2.3l0-18.7c0-1.2,1-2.3,2.3-2.3h18.6
			C22.1,286.3,23.1,287.4,23,288.6z M18.5,291H4.7v14h13.8V291z M81,237.1v18.7c0,1.2-1,2.3-2.3,2.3H60.1c-1.2,0-2.3-1-2.3-2.3
			v-18.7c0-1.2,1-2.3,2.3-2.3h18.6C80,234.8,81.1,235.9,81,237.1z M76.3,253.6v-14H62.4v14H76.3L76.3,253.6z M13.9,65.6H9.3v-4.7
			h4.6V65.6z M13.9,14.1H9.3V9.4h4.6V14.1z M70.8,65.5h-4.6v-4.7h4.6V65.5z M78.7,16.4H50.4v-4.7h26v-7H59.8V0h18.9
			C80,0,81,1.1,81,2.3v11.8C81.1,15.4,80,16.4,78.7,16.4z M46.2,16.4h-4.6V0h4.6V16.4z M55.5,4.7h-4.6V0h4.6V4.7z M48.5,75h-9.2
			C38,75,37,73.9,37,72.7v-9.4h-4.6V75h-4.6V61c0-1.3,1.1-2.3,2.3-2.3h9.3c1.3,0,2.3,1.1,2.3,2.3v9.3h4.6V58.6h4.6v14.1
			C50.9,73.9,49.8,75,48.5,75z M51.2,37.5v14h-5V35.1c0-1.3,1.1-2.3,2.4-2.3h32.2v4.7H51.2z M27.7,51.6v-4.7h-6.9v-4.7h9.3
			c1.3,0,2.3,1.1,2.3,2.3v7L27.7,51.6z M6.9,46.9H0v-4.7h6.9V46.9z M16.2,46.9h-4.6v-4.7h4.6V46.9z M80.8,46.9h-4.6v-4.7h4.6V46.9z
			 M69.3,46.9H55.5v-4.7h13.8V46.9z M32.4,25.8c-1.3,0-2.3-1.1-2.3-2.3V0.1h4.6v21H81v4.7H32.4z M41.6,51.6h-4.6V39.9h4.6V51.6z
			 M25.4,37.5H0v-4.7h23.1v-4.7h4.6v7C27.8,36.5,26.7,37.5,25.4,37.5z M41.6,35.1h-4.6v-4.7h4.6V35.1z M13.9,92.6H9.3v-4.7h4.6V92.6
			z M13.9,144.1H9.3v-4.7h4.6V144.1z M81,139.4v11.8c0,1.2-1,2.3-2.3,2.3H59.8v-4.7h16.6v-7h-26v-4.7h28.4
			C80,137.1,81.1,138.1,81,139.4z M46.2,153.5h-4.6v-16.4h4.6V153.5z M55.5,153.5h-4.6v-4.7h4.6V153.5z M50.9,80.8v14.1h-4.6V83.2
			h-4.6v9.3c0,1.2-1,2.3-2.3,2.3H30c-1.2,0-2.3-1-2.3-2.3v-14h4.6v11.7H37v-9.4c0-1.2,1-2.3,2.3-2.3h9.2
			C49.8,78.5,50.9,79.6,50.9,80.8z M80.8,116v4.7H48.7c-1.3,0-2.4-1-2.4-2.3v-16.4h5v14H80.8z M32.4,102v7c0,1.2-1,2.3-2.3,2.3h-9.3
			v-4.7h6.9v-4.7L32.4,102z M6.9,111.3H0v-4.7h6.9V111.3z M16.2,111.3h-4.6v-4.7h4.6V111.3z M81,127.7v4.7H34.7v21h-4.6V130
			c0-1.2,1-2.3,2.3-2.3H81z M41.6,113.6h-4.6v-11.7h4.6V113.6z M27.8,118.4v7h-4.6v-4.7H0V116h25.4C26.7,116,27.8,117,27.8,118.4z
			 M41.6,123.1h-4.6v-4.7h4.6V123.1z M13.9,222.6H9.3v-4.7h4.6V222.6z M78.7,173.4H50.4v-4.7h26v-7H59.8V157h18.9
			c1.3,0,2.3,1.1,2.3,2.3v11.8C81.1,172.4,80,173.4,78.7,173.4z M46.2,173.4h-4.6V157h4.6V173.4z M55.5,161.7h-4.6V157h4.6V161.7z
			 M48.5,232h-9.2c-1.3,0-2.3-1.1-2.3-2.3v-9.4h-4.6V232h-4.6v-14c0-1.3,1.1-2.3,2.3-2.3h9.3c1.3,0,2.3,1.1,2.3,2.3v9.3h4.6v-11.7
			h4.6v14.1C50.9,230.9,49.8,232,48.5,232z M51.2,194.5v14h-5v-16.4c0-1.3,1.1-2.3,2.4-2.3h32.2v4.7H51.2z M27.7,208.6v-4.7h-6.9
			v-4.7h9.3c1.3,0,2.3,1.1,2.3,2.3v7L27.7,208.6z M6.9,203.9H0v-4.7h6.9V203.9z M16.2,203.9h-4.6v-4.7h4.6V203.9z M69.3,203.9H55.5
			v-4.7h13.8V203.9z M32.4,182.8c-1.3,0-2.3-1.1-2.3-2.3v-23.4h4.6v21H81v4.7H32.4z M41.6,208.6h-4.6v-11.7h4.6V208.6z M21.4,194.1
			H0.1L0,189.4h19.1v-4.7h4.6v7C23.8,193.1,22.7,194.1,21.4,194.1z M41.6,192.1h-4.6v-4.7h4.6V192.1z M13.9,248.9H9.3v-4.7h4.6
			V248.9z M13.9,300.3H9.3v-4.7h4.6V300.3z M71.7,248.9H67v-4.7h4.6V248.9z M81,295.6v11.8c0,1.2-1,2.3-2.3,2.3H59.8V305h16.6v-7
			h-26v-4.7h28.4C80,293.3,81.1,294.4,81,295.6z M46.2,309.8h-4.6v-16.4h4.6V309.8z M55.5,309.8h-4.6V305h4.6V309.8z M50.9,237.1
			v14.1h-4.6v-11.7h-4.6v9.3c0,1.2-1,2.3-2.3,2.3H30c-1.2,0-2.3-1-2.3-2.3v-14h4.6v11.7H37v-9.4c0-1.2,1-2.3,2.3-2.3h9.2
			C49.8,234.8,50.9,235.8,50.9,237.1z M90.9,272.1c0,1.6,0,3.2,0,4.8H48.7c-1.3,0-2.4-1-2.4-2.3v-16.4h5v14
			C64.4,272.2,77.7,272.2,90.9,272.1z M32.4,258.3v7c0,1.2-1,2.3-2.3,2.3h-9.3v-4.7h6.9v-4.7L32.4,258.3z M6.9,267.6H0v-4.7h6.9
			V267.6z M16.2,267.6h-4.6v-4.7h4.6V267.6z M69.3,267.6H55.5v-4.7h13.8V267.6z M81,283.9v4.7H34.7v21h-4.6v-23.4
			c0-1.2,1-2.3,2.3-2.3H81z M41.6,269.9h-4.6v-11.7h4.6V269.9z M27.8,274.6v7h-4.6v-4.7H0v-4.7h25.4
			C26.7,272.2,27.8,273.3,27.8,274.6z M41.6,279.3h-4.6v-4.7h4.6V279.3z M85.3,94.9H56.9v-4.7h26v-7H66.3v-4.7h18.9
			c1.3,0,2.3,1.1,2.3,2.3v11.8C87.6,93.9,86.5,94.9,85.3,94.9z M61.5,83.2h-4.6v-4.7h4.6V83.2z M56.9,106.6v-4.7h31.6
			c1.3,0,2.4,1,2.4,2.3v16.4h-5v-14H56.9z M90.9,46.9c-3.4,0-6.7,0-10.1,0c0-1.6,0-3.1,0-4.7c3.4,0,6.7,0,10.1,0V46.9z M71.7,220.2
			h-4.6v-4.7h4.6V220.2z M91,206.3v4.7H63.3v21h-4.6v-23.4c0-1.2,1-2.3,2.3-2.3H91z M91,232H67v-4.7h24v-7H76.4v-4.7H91 M91,258.2
			l-4.6,0v-23.3H91V258.2z M90.9,203.9H76.2v-4.7l14.7,0V203.9z M76.2,262.9c4.9,0,9.8,0,14.7,0v4.7c-4.9,0-9.8,0-14.7,0
			C76.2,266,76.2,264.5,76.2,262.9z M23.2,158.7v14.1h-4.6v-11.7h-4.6v9.3c0,1.2-1,2.3-2.3,2.3H2.3c-1.2,0-2.3-1-2.3-2.3v-14h4.6
			v11.7h4.6v-9.4c0-1.2,1-2.3,2.3-2.3h9.2C22.1,156.4,23.2,157.4,23.2,158.7z M23.8,181.1h-4.6v-4.7h4.6V181.1z M13.9,181.1H0v-4.7
			h13.9V181.1z M89.4,32.6l1.6,0v5l-4,0c-1.3,0-2.3-1.1-2.3-2.4l0-35h4.8L89.4,32.6z M89,168.2h-4.7v-31.6c0-1.3,1-2.4,2.3-2.4h4.4
			v5h-2V168.2z M90.9,190.2v4.7h-4.2c-1.3,0-2.4-1-2.4-2.3v-16.4h5v14H90.9z M90.9,70.3v4.7l-3.8,0c-1.3,0-2.4-1-2.4-2.3V56.2h5v14
			H90.9z M89.6,288.6v14h-5v-16.4c0-1.3,1.1-2.3,2.4-2.3l3.8,0v4.7H89.6z"/>
	</defs>
	<linearGradient id="SVGID_2_" gradientUnits="userSpaceOnUse" x1="-1.102512e-02" y1="154.8759" x2="90.9726" y2="154.8759">
		<stop  offset="0" style="stop-color:#0C2B44;stop-opacity:0.7"/>
		<stop  offset="2.744690e-02" style="stop-color:#183048;stop-opacity:0.687"/>
		<stop  offset="7.755618e-02" style="stop-color:#393D51;stop-opacity:0.6631"/>
		<stop  offset="0.1441" style="stop-color:#6E5361;stop-opacity:0.6315"/>
		<stop  offset="0.2104" style="stop-color:#A96B72;stop-opacity:0.6"/>
		<stop  offset="0.3453" style="stop-color:#CA787C;stop-opacity:0.4764"/>
		<stop  offset="0.538" style="stop-color:#FF8E8C;stop-opacity:0.3"/>
		<stop  offset="0.8573" style="stop-color:#885D69;stop-opacity:0.6"/>
		<stop  offset="1" style="stop-color:#0C2B44;stop-opacity:0.7"/>
	</linearGradient>
	<use xlink:href="#SVGID_1_"  style="overflow:visible;opacity:0;fill:url(#SVGID_2_);"/>
	<clipPath id="SVGID_3_">
		<use xlink:href="#SVGID_1_"  style="overflow:visible;opacity:0;"/>
	</clipPath>
	<linearGradient id="SVGID_4_" gradientUnits="userSpaceOnUse" x1="44.6874" y1="-1.0228" x2="46.2473" y2="309.8249">
		<stop  offset="0" style="stop-color:#0C2B44;stop-opacity:0.9"/>
		<stop  offset="2.744690e-02" style="stop-color:#183048;stop-opacity:0.8806"/>
		<stop  offset="7.755618e-02" style="stop-color:#393D51;stop-opacity:0.8451"/>
		<stop  offset="0.1441" style="stop-color:#6E5361;stop-opacity:0.798"/>
		<stop  offset="0.2104" style="stop-color:#A96B72;stop-opacity:0.751"/>
		<stop  offset="0.3453" style="stop-color:#CA787C;stop-opacity:0.6064"/>
		<stop  offset="0.538" style="stop-color:#FF8E8C;stop-opacity:0.4"/>
		<stop  offset="0.8573" style="stop-color:#885D69;stop-opacity:0.782"/>
		<stop  offset="1" style="stop-color:#0C2B44;stop-opacity:0.9"/>
	</linearGradient>
	<rect x="0" y="0.1" class="st3" width="90.9" height="309.7"/>
</g>
<path class="st4" d="M90.9,0C79.3,0,67.8,0.1,56.2,0.1C48,4.4,36.7,11.7,26,23.4C9.3,41.5,2.7,60.8,0,71.3c0,12.6,0,25.2,0,37.8
	c0,0.4,0,0.4,0,0.6c-0.2,12,30.1,31.8,30.1,31.8c13.5,8.7,20.2,11.2,22.3,19c1.1,4,0.4,7.4-0.1,9.6c-2.9,13.5-15.2,19.1-32.5,33.8
	c-5,4.3-12,10.6-19.8,19.2c0,28.9,0,57.8,0,86.7c30.3,0,60.6,0,90.9,0c0-3.4,0-6.8,0-10.2c-1.5-1.3-3.9-3.1-6.8-5.2
	c-16.8-11.7-26.2-11-35.5-17.5c-11.3-7.8-18.8-23.7-17.4-37.3c2.1-20.4,24.1-34.9,27.9-37.4c8.9-5.8,20.5-10.4,29.2-24.2
	c1.2-1.9,2.1-3.6,2.6-4.7c0-2.4,0-4.8,0-7.2c0-3.7,0-7.4,0-11.2c-1.6-2-4.2-5.2-7.8-8.5c-14.9-13.7-26.8-12.3-40-22.3
	C39.6,121.5,27.6,112.3,25,98c-3.5-19.6,12.5-38.4,26.7-47.3c16-10.1,32.6-9.3,39.3-8.5C90.9,28.1,90.9,14.1,90.9,0z"/>
<linearGradient id="SVGID_5_" gradientUnits="userSpaceOnUse" x1="47.4336" y1="13.736" x2="43.3925" y2="303.477">
	<stop  offset="1.982887e-07" style="stop-color:#FFFFFF;stop-opacity:0.3"/>
	<stop  offset="0.1972" style="stop-color:#FFFFFF;stop-opacity:0.6"/>
	<stop  offset="0.5206" style="stop-color:#FFFFFF;stop-opacity:0.6"/>
	<stop  offset="0.7913" style="stop-color:#FFFFFF;stop-opacity:0.4895"/>
	<stop  offset="1" style="stop-color:#FFFFFF;stop-opacity:0.3"/>
</linearGradient>
<rect x="0" y="0.1" class="st5" width="91" height="309.7"/>
</svg>
