<svg xmlns="http://www.w3.org/2000/svg" xmlns:xlink="http://www.w3.org/1999/xlink" viewBox="0 0 90.93 309.75"><defs><style>.cls-1{fill:none;}.cls-2{clip-path:url(#clip-path);}.cls-3{fill:url(#linear-gradient);}.cls-4{fill:#fff;}</style><clipPath id="clip-path" transform="translate(-0.01 0)"><path class="cls-1" d="M20.84,75H2.28A2.34,2.34,0,0,1,0,72.69V54a2.27,2.27,0,0,1,2.28-2.3H20.75A2.27,2.27,0,0,1,23,54V72.69A2.2,2.2,0,0,1,20.84,75ZM18.48,56.27H4.64v14H18.48Zm2.38-32.84H2.3A2.28,2.28,0,0,1,0,21.12V2.4A2.28,2.28,0,0,1,2.3.09H20.78A2.27,2.27,0,0,1,23.05,2.4V21.12A2.2,2.2,0,0,1,20.86,23.43ZM18.5,4.7H4.66v14H18.5ZM77.78,74.91H59.2a2.27,2.27,0,0,1-2.29-2.31V53.88a2.28,2.28,0,0,1,2.29-2.31H77.78a2.28,2.28,0,0,1,2.29,2.31V72.6A2.23,2.23,0,0,1,77.78,74.91ZM75.49,56.18h-14v14H75.4v-14ZM23,80.81V99.53a2.27,2.27,0,0,1-2.28,2.31H2.28A2.27,2.27,0,0,1,0,99.53V80.81A2.33,2.33,0,0,1,2.28,78.5H20.84A2.2,2.2,0,0,1,23,80.81ZM18.48,83.2H4.64v14H18.48Zm4.57,49.17V151.1a2.28,2.28,0,0,1-2.27,2.31H2.3A2.28,2.28,0,0,1,0,151.1V132.37a2.28,2.28,0,0,1,2.28-2.3H20.86A2.2,2.2,0,0,1,23.05,132.37Zm-4.55,2.4H4.66v14H18.5ZM20.84,232H2.28A2.34,2.34,0,0,1,0,229.69V211a2.27,2.27,0,0,1,2.28-2.3H20.75A2.27,2.27,0,0,1,23,211v18.73A2.2,2.2,0,0,1,20.84,232Zm-2.36-18.73H4.64v14H18.48ZM23,237.06v18.73a2.28,2.28,0,0,1-2.28,2.31H2.28A2.28,2.28,0,0,1,0,255.79V237.06a2.34,2.34,0,0,1,2.28-2.31H20.84A2.2,2.2,0,0,1,23,237.06Zm-4.55,2.4H4.64v14H18.48Zm4.57,49.17v18.73a2.27,2.27,0,0,1-2.27,2.3H2.3A2.27,2.27,0,0,1,0,307.36V288.63a2.29,2.29,0,0,1,2.28-2.31H20.86A2.2,2.2,0,0,1,23.05,288.63ZM18.5,291H4.66v14H18.5ZM81,237.15v18.73a2.27,2.27,0,0,1-2.28,2.3H60.12a2.27,2.27,0,0,1-2.28-2.3V237.15a2.28,2.28,0,0,1,2.28-2.31H78.71A2.22,2.22,0,0,1,81,237.15Zm-4.66,16.42v-14H62.41v14H76.33Zm-62.41-188H9.28v-4.7h4.64Zm0-51.48H9.3V9.41h4.64ZM70.81,65.55H66.17V60.84h4.64Zm8-49.13H50.38v-4.7h26v-7H59.78V0H78.67A2.3,2.3,0,0,1,81,2.31v11.8A2.22,2.22,0,0,1,78.76,16.42Zm-32.5,0H41.62V0h4.64ZM55.54,4.7H50.9V0h4.64Zm-7,70.3H39.32A2.28,2.28,0,0,1,37,72.69V63.28H32.4V75H27.76V61A2.28,2.28,0,0,1,30,58.67h9.28A2.27,2.27,0,0,1,41.59,61V70.3h4.65V58.58h4.64V72.69A2.36,2.36,0,0,1,48.51,75ZM51.2,37.54v14h-5V35.15a2.36,2.36,0,0,1,2.43-2.31H80.83v4.7Zm-23.44,14V46.86H20.84v-4.7h9.28a2.27,2.27,0,0,1,2.28,2.31v7ZM6.94,46.86H0v-4.7H6.94Zm9.28,0H11.58v-4.7h4.64Zm64.61,0h-4.6v-4.7h4.6Zm-11.48,0H55.52v-4.7H69.35Zm-37-21a2.28,2.28,0,0,1-2.28-2.31V.09h4.64v21H81v4.71Zm9.21,25.74H37V39.85h4.64Zm-16.17-14H0v-4.7H23.14v-4.7h4.64v7A2.36,2.36,0,0,1,25.42,37.54Zm16.17-2.39H37V30.44h4.64ZM13.92,92.61H9.28v-4.7h4.64Zm0,51.48H9.3v-4.7h4.64ZM81,139.39v11.8a2.3,2.3,0,0,1-2.32,2.31H59.78v-4.71H76.34v-7h-26v-4.7H78.76A2.22,2.22,0,0,1,81,139.39ZM46.26,153.5H41.62V137.08h4.64Zm9.28,0H50.9v-4.71h4.64ZM50.88,80.81V94.92H46.24V83.2H41.59v9.32a2.28,2.28,0,0,1-2.27,2.31H30a2.28,2.28,0,0,1-2.28-2.31v-14H32.4V90.21H37v-9.4a2.27,2.27,0,0,1,2.28-2.31h9.19A2.35,2.35,0,0,1,50.88,80.81ZM80.83,116v4.71H48.67a2.36,2.36,0,0,1-2.43-2.31V101.93h5v14ZM32.4,102v7a2.28,2.28,0,0,1-2.28,2.31H20.84v-4.71h6.92v-4.7ZM6.94,111.34H0v-4.71H6.94Zm9.28,0H11.58v-4.71h4.64ZM81,127.67v4.7H34.74v21H30.1V130a2.27,2.27,0,0,1,2.28-2.31Zm-39.39-14H37V101.93h4.64Zm-13.81,4.7v7H23.14v-4.7H0V116h25.4A2.37,2.37,0,0,1,27.78,118.35Zm13.81,4.7H37v-4.7h4.64ZM13.92,222.59H9.28v-4.7h4.64Zm64.84-49.17H50.38v-4.7h26v-7H59.78V157H78.67A2.3,2.3,0,0,1,81,159.31v11.8A2.22,2.22,0,0,1,78.76,173.42Zm-32.5,0H41.62V157h4.64Zm9.28-11.72H50.9V157h4.64Zm-7,70.3H39.32A2.28,2.28,0,0,1,37,229.69v-9.41H32.4V232H27.76V218A2.28,2.28,0,0,1,30,215.67h9.28A2.27,2.27,0,0,1,41.59,218v9.32h4.65V215.58h4.64v14.11A2.36,2.36,0,0,1,48.51,232Zm2.69-37.46v14h-5V192.15a2.36,2.36,0,0,1,2.43-2.31H80.83v4.7Zm-23.44,14v-4.71H20.84v-4.7h9.28a2.27,2.27,0,0,1,2.28,2.31v7ZM6.94,203.86H0v-4.7H6.94Zm9.28,0H11.58v-4.7h4.64Zm53.13,0H55.52v-4.7H69.35Zm-37-21a2.28,2.28,0,0,1-2.28-2.31V157.09h4.64v21H81v4.71Zm9.21,25.74H37V196.85h4.64ZM21.42,194.12H.06L0,189.41H19.14v-4.7h4.64v7A2.37,2.37,0,0,1,21.42,194.12Zm20.17-2H37v-4.71h4.64ZM13.92,248.86H9.28v-4.7h4.64Zm0,51.48H9.3v-4.7h4.64Zm57.73-51.43H67V244.2h4.64ZM81,295.64v11.8a2.29,2.29,0,0,1-2.32,2.31H59.78v-4.7H76.34v-7h-26v-4.71H78.76A2.22,2.22,0,0,1,81,295.64ZM46.26,309.75H41.62V293.33h4.64Zm9.28,0H50.9v-4.7h4.64Zm-4.66-72.69v14.11H46.24V239.46H41.59v9.32a2.27,2.27,0,0,1-2.27,2.3H30a2.27,2.27,0,0,1-2.28-2.3v-14H32.4v11.72H37v-9.41a2.28,2.28,0,0,1,2.28-2.31h9.19A2.36,2.36,0,0,1,50.88,237.06Zm40.06,35.07,0,4.78H48.67a2.35,2.35,0,0,1-2.43-2.31V258.18h5v14ZM32.4,258.27v7a2.27,2.27,0,0,1-2.28,2.31H20.84v-4.7h6.92v-4.71ZM6.94,267.59H0v-4.7H6.94Zm9.28,0H11.58v-4.7h4.64Zm53.13,0H55.52v-4.7H69.35ZM81,283.92v4.71H34.74v21H30.1V286.23a2.28,2.28,0,0,1,2.28-2.31Zm-39.39-14H37V258.18h4.64Zm-13.81,4.7v7H23.14v-4.71H0v-4.7h25.4A2.36,2.36,0,0,1,27.78,274.6Zm13.81,4.71H37V274.6h4.64ZM85.29,94.92H56.91V90.21h26v-7H66.31V78.5H85.2a2.29,2.29,0,0,1,2.32,2.31v11.8A2.22,2.22,0,0,1,85.29,94.92ZM61.55,83.2H56.91V78.5h4.64Zm-4.64,23.43v-4.7H88.5a2.37,2.37,0,0,1,2.44,2.31v16.42H86v-14Zm34-59.77H80.83v-4.7H90.94ZM71.74,220.24H67.1v-4.7h4.64Zm19.24-14V211H63.35v21H58.71V208.57A2.28,2.28,0,0,1,61,206.26ZM91,232H67v-4.7H91v-7H76.43v-4.7H91m0,42.6H86.34V234.84H91Zm0-54.32H76.23v-4.65l14.71-.05Zm-14.71,59H90.94v4.7H76.23Zm-53-104.23v14.11H18.54V161.06H13.9v9.32a2.27,2.27,0,0,1-2.28,2.3H2.34a2.28,2.28,0,0,1-2.28-2.3v-14H4.71v11.72H9.35v-9.41a2.28,2.28,0,0,1,2.27-2.31h9.2A2.35,2.35,0,0,1,23.18,158.66Zm.6,22.43H19.14v-4.7h4.64Zm-9.88,0H0v-4.7H13.9ZM89.37,32.55h1.57v5H87a2.36,2.36,0,0,1-2.3-2.44V.09h4.76ZM89,168.16H84.27V136.57a2.36,2.36,0,0,1,2.31-2.44h4.36v5H89Zm2,22.05v4.7H86.71a2.36,2.36,0,0,1-2.44-2.31V176.18h5v14Zm0-120v4.66L87.1,75a2.37,2.37,0,0,1-2.44-2.31V56.23h5v14ZM89.63,288.63v14h-5V286.23a2.37,2.37,0,0,1,2.44-2.31l3.84.05v4.66Z"/></clipPath><linearGradient id="linear-gradient" x1="44.69" y1="-1.02" x2="46.25" y2="309.82" gradientUnits="userSpaceOnUse"><stop offset="0" stop-color="#0c2b44"/><stop offset="0.21" stop-color="#574a5a" stop-opacity="0.75"/><stop offset="0.54" stop-color="#ff8e8c" stop-opacity="0.2"/><stop offset="1" stop-color="#0c2b44"/></linearGradient></defs><title>Asset 8</title><g id="Layer_2" data-name="Layer 2"><g id="Layer_1-2" data-name="Layer 1"><g class="cls-2"><rect class="cls-3" x="0.01" y="0.09" width="90.92" height="309.66"/></g><path class="cls-4" d="M90.94,0,56.2.12A111.71,111.71,0,0,0,26,23.38a113.29,113.29,0,0,0-26,48l0,37.8c0,.4,0,.44,0,.58-.18,12,30.09,31.83,30.09,31.83,13.54,8.72,20.22,11.18,22.31,19a19.59,19.59,0,0,1-.09,9.59c-2.9,13.49-15.23,19.11-32.5,33.75A211.18,211.18,0,0,0,0,223v86.71H90.94V299.54c-1.54-1.27-3.86-3.11-6.79-5.16-16.81-11.75-26.17-11-35.48-17.47-11.26-7.81-18.82-23.65-17.43-37.28,2.08-20.41,24.12-34.92,27.92-37.42C68,196.37,79.68,191.8,88.32,178c1.21-1.92,2.08-3.58,2.62-4.66V155a69.16,69.16,0,0,0-7.78-8.5c-14.91-13.74-26.78-12.25-40-22.33C39.59,121.49,27.57,112.33,25,98,21.45,78.47,37.51,59.6,51.66,50.71c16-10.06,32.61-9.26,39.28-8.55Z" transform="translate(-0.01 0)"/></g></g></svg>