<?xml version="1.0" encoding="utf-8"?>
<!-- Generator: Adobe Illustrator 22.1.0, SVG Export Plug-In . SVG Version: 6.00 Build 0)  -->
<svg version="1.1" id="Layer_1" xmlns="http://www.w3.org/2000/svg" xmlns:xlink="http://www.w3.org/1999/xlink" x="0px" y="0px"
	 viewBox="0 0 81 75" style="enable-background:new 0 0 81 75;" xml:space="preserve">
<style type="text/css">
	.st0{opacity:0.4;fill:#FF9A95;}
</style>
<path class="st0" d="M20.8,75H2.3C1.1,75,0,73.9,0,72.7V54c0-1.3,1.1-2.3,2.3-2.3h18.5c1.3,0,2.3,1.1,2.3,2.3v18.7
	C23.1,73.9,22.1,75,20.8,75z M18.5,56.3H4.6v14h13.8V56.3z"/>
<path class="st0" d="M20.9,23.4H2.3C1,23.4,0,22.4,0,21.1V2.4c0-1.3,1.1-2.3,2.3-2.3h18.5c1.3,0,2.3,1.1,2.3,2.3v18.7
	C23.1,22.4,22.1,23.4,20.9,23.4z M18.5,4.7H4.7v14h13.8V4.7z"/>
<path class="st0" d="M78.7,74.9H60.1c-1.3,0-2.3-1.1-2.3-2.3V53.9c0-1.3,1.1-2.3,2.3-2.3h18.6c1.3,0,2.3,1.1,2.3,2.3v18.7
	C81.1,73.8,80,74.9,78.7,74.9z M76.4,56.2h-14v14h13.9L76.4,56.2L76.4,56.2z"/>
<path class="st0" d="M13.9,65.6H9.3v-4.7h4.6V65.6z"/>
<path class="st0" d="M13.9,14.1H9.3V9.4h4.6V14.1z"/>
<path class="st0" d="M71.7,65.5H67v-4.7h4.6V65.5z"/>
<path class="st0" d="M78.8,16.4H50.4v-4.7h26v-7H59.8V0h18.9C80,0,81,1.1,81,2.3v11.8C81.1,15.4,80,16.4,78.8,16.4z"/>
<path class="st0" d="M46.3,16.4h-4.6V0h4.6V16.4z"/>
<path class="st0" d="M55.5,4.7h-4.6V0h4.6V4.7z"/>
<path class="st0" d="M48.5,75h-9.2C38,75,37,73.9,37,72.7v-9.4h-4.6V75h-4.6V61c0-1.3,1.1-2.3,2.3-2.3h9.3c1.3,0,2.3,1.1,2.3,2.3
	v9.3h4.6V58.6h4.6v14.1C50.9,73.9,49.8,75,48.5,75z"/>
<path class="st0" d="M51.2,37.5v14h-5V35.1c0-1.3,1.1-2.3,2.4-2.3h32.2v4.7H51.2z"/>
<path class="st0" d="M27.8,51.6v-4.7h-6.9v-4.7h9.3c1.3,0,2.3,1.1,2.3,2.3v7L27.8,51.6z"/>
<path class="st0" d="M6.9,46.9H0v-4.7h6.9V46.9z"/>
<path class="st0" d="M16.2,46.9h-4.6v-4.7h4.6V46.9z"/>
<path class="st0" d="M80.8,46.9h-4.6v-4.7h4.6V46.9z"/>
<path class="st0" d="M69.4,46.9H55.5v-4.7h13.8V46.9z"/>
<path class="st0" d="M32.4,25.8c-1.3,0-2.3-1.1-2.3-2.3V0.1h4.6v21H81v4.7H32.4z"/>
<path class="st0" d="M41.6,51.6H37V39.9h4.6V51.6z"/>
<path class="st0" d="M25.4,37.5H0v-4.7h23.1v-4.7h4.6v7C27.8,36.5,26.7,37.5,25.4,37.5z"/>
<path class="st0" d="M41.6,35.1H37v-4.7h4.6V35.1z"/>
</svg>
