<svg width="81" height="75" viewBox="0 0 81 75" fill="none" xmlns="http://www.w3.org/2000/svg">
<path d="M20.841 0H2.27675C1.05081 0 0 1.06509 0 2.30769V21.0355C0 22.3669 1.05081 23.3432 2.27675 23.3432H20.7535C22.067 23.3432 23.0302 22.2781 23.0302 21.0355V2.30769C23.1178 1.06509 22.067 0 20.841 0ZM18.4767 18.7278H4.64107V4.70414H18.4767V18.7278Z" transform="translate(0 75) scale(1 -1)" fill="#FAA598"/>
<path d="M20.841 -1.35433e-06H2.27675C0.96324 -1.35433e-06 0 1.06509 0 2.30769V21.0355C0 22.3669 1.05081 23.3432 2.27675 23.3432H20.7535C22.067 23.3432 23.0302 22.2781 23.0302 21.0355V2.30769C23.1178 1.06509 22.067 -1.35433e-06 20.841 -1.35433e-06ZM18.4767 18.7278H4.64107V4.70414H18.4767V18.7278Z" transform="translate(0 23.4319) scale(1 -1)" fill="#FAA598"/>
<path d="M20.7535 0H2.27675C0.96324 0 1.33617e-06 1.06509 1.33617e-06 2.30769V21.0355C1.33617e-06 22.3669 1.05081 23.3432 2.27675 23.3432H20.7535C22.067 23.3432 23.0302 22.2781 23.0302 21.0355V2.30769C23.1178 1.06509 22.067 0 20.7535 0ZM18.4767 18.7278H4.5535V4.70414H18.3891V18.7278H18.4767Z" transform="translate(55.5176 75) scale(1 -1)" fill="#FAA598"/>
<path d="M4.64107 0H0V4.70414H4.64107V0Z" transform="translate(9.28125 65.5918) scale(1 -1)" fill="#FAA598"/>
<path d="M4.64107 0H0V4.70414H4.64107V0Z" transform="translate(9.28125 14.1123) scale(1 -1)" fill="#FAA598"/>
<path d="M4.64107 0H0V4.70414H4.64107V0Z" transform="translate(64.7119 65.5918) scale(1 -1)" fill="#FAA598"/>
<path d="M27.7588 0H-1.33617e-06V4.70414H25.3945V11.716H9.19457V16.4201H27.6713C28.9848 16.4201 29.948 15.355 29.948 14.1124V2.30769C30.0356 1.06509 28.9848 0 27.7588 0Z" transform="translate(50.877 16.4202) scale(1 -1)" fill="#FAA598"/>
<path d="M4.64107 0H0V16.4201H4.64107V0Z" transform="translate(41.5938 16.4202) scale(1 -1)" fill="#FAA598"/>
<path d="M4.64107 -2.70866e-06H0V4.70414H4.64107V-2.70866e-06Z" transform="translate(50.877 4.7041) scale(1 -1)" fill="#FAA598"/>
<path d="M20.7535 0H11.5589C10.2454 0 9.28214 1.06509 9.28214 2.30769V11.716H4.64107V0H6.68086e-07V14.0237C6.68086e-07 15.355 1.05081 16.3314 2.27675 16.3314H11.5589C12.8724 16.3314 13.8356 15.2663 13.8356 14.0237V4.70414H18.4767V16.4201H23.1178V2.30769C23.1178 1.06509 22.067 0 20.7535 0Z" transform="translate(27.7588 75) scale(1 -1)" fill="#FAA598"/>
<path d="M4.64107 14.0237V-3.38582e-07H-6.68086e-07V16.4201C-6.68086e-07 17.7515 1.05081 18.7278 2.27675 18.7278H32.3123V14.0237H4.64107Z" transform="translate(46.2354 51.5681) scale(1 -1)" fill="#FAA598"/>
<path d="M6.91782 -3.38582e-07V4.70414H-6.68086e-07V9.40828H9.28214C10.5956 9.40828 11.5589 8.34319 11.5589 7.10059V0.0887574L6.91782 -3.38582e-07Z" transform="translate(20.8408 51.5681) scale(1 -1)" fill="#FAA598"/>
<path d="M6.91782 0H0V4.70414H6.91782V0Z" transform="translate(0 46.864) scale(1 -1)" fill="#FAA598"/>
<path d="M4.64107 0H0V4.70414H4.64107V0Z" transform="translate(11.5586 46.864) scale(1 -1)" fill="#FAA598"/>
<path d="M4.64107 0H0V4.70414H4.64107V0Z" transform="translate(73.9941 46.864) scale(1 -1)" fill="#FAA598"/>
<path d="M13.8356 0H0V4.70414H13.8356V0Z" transform="translate(55.5176 46.864) scale(1 -1)" fill="#FAA598"/>
<path d="M2.27675 1.35433e-06C0.96324 1.35433e-06 1.33617e-06 1.06509 1.33617e-06 2.30769V25.7396H4.64107V4.70414H50.8766V1.35433e-06H2.27675Z" transform="translate(30.123 25.8284) scale(1 -1)" fill="#FAA598"/>
<path d="M4.64107 0H0V11.716H4.64107V0Z" transform="translate(36.9531 51.5681) scale(1 -1)" fill="#FAA598"/>
<path d="M25.3945 6.77165e-07H0V4.70414H23.1178V9.40828H27.7588V2.39645C27.7588 1.06509 26.708 6.77165e-07 25.3945 6.77165e-07Z" transform="translate(0 37.5444) scale(1 -1)" fill="#FAA598"/>
<path d="M4.64107 0H0V4.70414H4.64107V0Z" transform="translate(36.9531 35.1479) scale(1 -1)" fill="#FAA598"/>
</svg>
