<svg xmlns="http://www.w3.org/2000/svg" viewBox="0 0 90.98 309.75"><defs><style>.cls-1,.cls-3{opacity:0.2;}.cls-2,.cls-3{fill:#ff8e8c;}.cls-4{fill:#fff;}</style></defs><title>pinkswirl_3</title><g id="Layer_2" data-name="Layer 2"><g id="Layer_1-2" data-name="Layer 1"><g class="cls-1"><path class="cls-2" d="M20.84,75H2.28A2.34,2.34,0,0,1,0,72.69V54a2.27,2.27,0,0,1,2.28-2.3H20.75A2.27,2.27,0,0,1,23,54V72.69A2.2,2.2,0,0,1,20.84,75ZM18.48,56.27H4.64v14H18.48Z"/><path class="cls-2" d="M20.86,23.43H2.3A2.28,2.28,0,0,1,0,21.12V2.4A2.28,2.28,0,0,1,2.3.09H20.78A2.27,2.27,0,0,1,23.05,2.4V21.12A2.2,2.2,0,0,1,20.86,23.43ZM18.5,4.7H4.66v14H18.5Z"/><path class="cls-2" d="M77.78,74.91H59.2a2.27,2.27,0,0,1-2.29-2.31V53.88a2.28,2.28,0,0,1,2.29-2.31H77.78a2.28,2.28,0,0,1,2.29,2.31V72.6A2.23,2.23,0,0,1,77.78,74.91ZM75.49,56.18h-14v14H75.4v-14Z"/><path class="cls-2" d="M13.92,65.59H9.28v-4.7h4.64Z"/><path class="cls-2" d="M13.94,14.11H9.3V9.41h4.64Z"/><path class="cls-2" d="M70.81,65.55H66.17V60.84h4.64Z"/><path class="cls-2" d="M78.76,16.42H50.38v-4.7h26v-7H59.78V0H78.67A2.3,2.3,0,0,1,81,2.31v11.8A2.22,2.22,0,0,1,78.76,16.42Z"/><path class="cls-2" d="M46.26,16.42H41.62V0h4.64Z"/><path class="cls-2" d="M55.54,4.7H50.9V0h4.64Z"/><path class="cls-2" d="M48.51,75H39.32A2.28,2.28,0,0,1,37,72.69V63.28H32.4V75H27.76V61A2.28,2.28,0,0,1,30,58.67h9.28A2.27,2.27,0,0,1,41.59,61V70.3h4.65V58.58h4.64V72.69A2.36,2.36,0,0,1,48.51,75Z"/><path class="cls-2" d="M51.2,37.54v14h-5V35.15a2.36,2.36,0,0,1,2.43-2.31H80.83v4.7Z"/><path class="cls-2" d="M27.76,51.57V46.86H20.84v-4.7h9.28a2.27,2.27,0,0,1,2.28,2.31v7Z"/><path class="cls-2" d="M6.94,46.86H0v-4.7H6.94Z"/><path class="cls-2" d="M16.22,46.86H11.58v-4.7h4.64Z"/><path class="cls-2" d="M80.83,46.86h-4.6v-4.7h4.6Z"/><path class="cls-2" d="M69.35,46.86H55.52v-4.7H69.35Z"/><path class="cls-2" d="M32.38,25.83a2.28,2.28,0,0,1-2.28-2.31V.09h4.64v21H81v4.71Z"/><path class="cls-2" d="M41.59,51.57H37V39.85h4.64Z"/><path class="cls-2" d="M25.42,37.54H0v-4.7H23.14v-4.7h4.64v7A2.36,2.36,0,0,1,25.42,37.54Z"/><path class="cls-2" d="M41.59,35.15H37V30.44h4.64Z"/></g><g class="cls-1"><path class="cls-2" d="M23,80.81V99.53a2.27,2.27,0,0,1-2.28,2.31H2.28A2.27,2.27,0,0,1,0,99.53V80.81A2.33,2.33,0,0,1,2.28,78.5H20.84A2.2,2.2,0,0,1,23,80.81ZM18.48,83.2H4.64v14H18.48Z"/><path class="cls-2" d="M23.05,132.37V151.1a2.28,2.28,0,0,1-2.27,2.31H2.3A2.28,2.28,0,0,1,0,151.1V132.37a2.28,2.28,0,0,1,2.28-2.3H20.86A2.2,2.2,0,0,1,23.05,132.37Zm-4.55,2.4H4.66v14H18.5Z"/><path class="cls-2" d="M13.92,92.61H9.28v-4.7h4.64Z"/><path class="cls-2" d="M13.94,144.09H9.3v-4.7h4.64Z"/><path class="cls-2" d="M81,139.39v11.8a2.3,2.3,0,0,1-2.32,2.31H59.78v-4.71H76.34v-7h-26v-4.7H78.76A2.22,2.22,0,0,1,81,139.39Z"/><path class="cls-2" d="M46.26,153.5H41.62V137.08h4.64Z"/><path class="cls-2" d="M55.54,153.5H50.9v-4.71h4.64Z"/><path class="cls-2" d="M50.88,80.81V94.92H46.24V83.2H41.59v9.32a2.28,2.28,0,0,1-2.27,2.31H30a2.28,2.28,0,0,1-2.28-2.31v-14H32.4V90.21H37v-9.4a2.27,2.27,0,0,1,2.28-2.31h9.19A2.35,2.35,0,0,1,50.88,80.81Z"/><path class="cls-2" d="M80.83,116v4.71H48.67a2.36,2.36,0,0,1-2.43-2.31V101.93h5v14Z"/><path class="cls-2" d="M32.4,102v7a2.28,2.28,0,0,1-2.28,2.31H20.84v-4.71h6.92v-4.7Z"/><path class="cls-2" d="M6.94,111.34H0v-4.71H6.94Z"/><path class="cls-2" d="M16.22,111.34H11.58v-4.71h4.64Z"/><path class="cls-2" d="M81,127.67v4.7H34.74v21H30.1V130a2.27,2.27,0,0,1,2.28-2.31Z"/><path class="cls-2" d="M41.59,113.65H37V101.93h4.64Z"/><path class="cls-2" d="M27.78,118.35v7H23.14v-4.7H0V116h25.4A2.37,2.37,0,0,1,27.78,118.35Z"/><path class="cls-2" d="M41.59,123.05H37v-4.7h4.64Z"/></g><g class="cls-1"><path class="cls-2" d="M20.84,232H2.28A2.34,2.34,0,0,1,0,229.69V211a2.27,2.27,0,0,1,2.28-2.3H20.75A2.27,2.27,0,0,1,23,211v18.73A2.2,2.2,0,0,1,20.84,232Zm-2.36-18.73H4.64v14H18.48Z"/><path class="cls-2" d="M13.92,222.59H9.28v-4.7h4.64Z"/><path class="cls-2" d="M78.76,173.42H50.38v-4.7h26v-7H59.78V157H78.67A2.3,2.3,0,0,1,81,159.31v11.8A2.22,2.22,0,0,1,78.76,173.42Z"/><path class="cls-2" d="M46.26,173.42H41.62V157h4.64Z"/><path class="cls-2" d="M55.54,161.7H50.9V157h4.64Z"/><path class="cls-2" d="M48.51,232H39.32A2.28,2.28,0,0,1,37,229.69v-9.41H32.4V232H27.76V218A2.28,2.28,0,0,1,30,215.67h9.28A2.27,2.27,0,0,1,41.59,218v9.32h4.65V215.58h4.64v14.11A2.36,2.36,0,0,1,48.51,232Z"/><path class="cls-2" d="M51.2,194.54v14h-5V192.15a2.36,2.36,0,0,1,2.43-2.31H80.83v4.7Z"/><path class="cls-2" d="M27.76,208.57v-4.71H20.84v-4.7h9.28a2.27,2.27,0,0,1,2.28,2.31v7Z"/><path class="cls-2" d="M6.94,203.86H0v-4.7H6.94Z"/><path class="cls-2" d="M16.22,203.86H11.58v-4.7h4.64Z"/><path class="cls-2" d="M69.35,203.86H55.52v-4.7H69.35Z"/><path class="cls-2" d="M32.38,182.83a2.28,2.28,0,0,1-2.28-2.31V157.09h4.64v21H81v4.71Z"/><path class="cls-2" d="M41.59,208.57H37V196.85h4.64Z"/><path class="cls-2" d="M21.42,194.12H.06L0,189.41H19.14v-4.7h4.64v7A2.37,2.37,0,0,1,21.42,194.12Z"/><path class="cls-2" d="M41.59,192.15H37v-4.71h4.64Z"/></g><g class="cls-1"><path class="cls-2" d="M23,237.06v18.73a2.28,2.28,0,0,1-2.28,2.31H2.28A2.28,2.28,0,0,1,0,255.79V237.06a2.34,2.34,0,0,1,2.28-2.31H20.84A2.2,2.2,0,0,1,23,237.06Zm-4.55,2.4H4.64v14H18.48Z"/><path class="cls-2" d="M23.05,288.63v18.73a2.27,2.27,0,0,1-2.27,2.3H2.3A2.27,2.27,0,0,1,0,307.36V288.63a2.29,2.29,0,0,1,2.28-2.31H20.86A2.2,2.2,0,0,1,23.05,288.63ZM18.5,291H4.66v14H18.5Z"/><path class="cls-2" d="M81,237.15v18.73a2.27,2.27,0,0,1-2.28,2.3H60.12a2.27,2.27,0,0,1-2.28-2.3V237.15a2.28,2.28,0,0,1,2.28-2.31H78.71A2.22,2.22,0,0,1,81,237.15Zm-4.66,16.42v-14H62.41v14H76.33Z"/><path class="cls-2" d="M13.92,248.86H9.28v-4.7h4.64Z"/><path class="cls-2" d="M13.94,300.34H9.3v-4.7h4.64Z"/><path class="cls-2" d="M71.67,248.91H67V244.2h4.64Z"/><path class="cls-2" d="M81,295.64v11.8a2.29,2.29,0,0,1-2.32,2.31H59.78v-4.7H76.34v-7h-26v-4.71H78.76A2.22,2.22,0,0,1,81,295.64Z"/><path class="cls-2" d="M46.26,309.75H41.62V293.33h4.64Z"/><path class="cls-2" d="M55.54,309.75H50.9v-4.7h4.64Z"/><path class="cls-2" d="M50.88,237.06v14.11H46.24V239.46H41.59v9.32a2.27,2.27,0,0,1-2.27,2.3H30a2.27,2.27,0,0,1-2.28-2.3v-14H32.4v11.72H37v-9.41a2.28,2.28,0,0,1,2.28-2.31h9.19A2.36,2.36,0,0,1,50.88,237.06Z"/><path class="cls-2" d="M90.94,272.13l0,4.78H48.67a2.35,2.35,0,0,1-2.43-2.31V258.18h5v14Z"/><path class="cls-2" d="M32.4,258.27v7a2.27,2.27,0,0,1-2.28,2.31H20.84v-4.7h6.92v-4.71Z"/><path class="cls-2" d="M6.94,267.59H0v-4.7H6.94Z"/><path class="cls-2" d="M16.22,267.59H11.58v-4.7h4.64Z"/><path class="cls-2" d="M69.35,267.59H55.52v-4.7H69.35Z"/><path class="cls-2" d="M81,283.92v4.71H34.74v21H30.1V286.23a2.28,2.28,0,0,1,2.28-2.31Z"/><path class="cls-2" d="M41.59,269.9H37V258.18h4.64Z"/><path class="cls-2" d="M27.78,274.6v7H23.14v-4.71H0v-4.7h25.4A2.36,2.36,0,0,1,27.78,274.6Z"/><path class="cls-2" d="M41.59,279.31H37V274.6h4.64Z"/></g><g class="cls-1"><path class="cls-2" d="M90.94,75H86.28A2.34,2.34,0,0,1,84,72.69V54a2.27,2.27,0,0,1,2.28-2.3l4.66-.09m0,4.7h-2.3v14h2.3Z"/><path class="cls-2" d="M86.3,23.43A2.28,2.28,0,0,1,84,21.12V2.4A2.28,2.28,0,0,1,86.3.09M88.66,4.7v14"/><path class="cls-2" d="M85.29,94.92H56.91V90.21h26v-7H66.31V78.5H85.2a2.29,2.29,0,0,1,2.32,2.31v11.8A2.22,2.22,0,0,1,85.29,94.92Z"/><path class="cls-2" d="M61.55,83.2H56.91V78.5h4.64Z"/><path class="cls-2" d="M56.91,106.63v-4.7H88.5a2.37,2.37,0,0,1,2.44,2.31v16.42H86v-14Z"/><path class="cls-2" d="M90.94,46.86H80.83v-4.7H90.94Z"/></g><g class="cls-1"><path class="cls-2" d="M71.74,220.24H67.1v-4.7h4.64Z"/><path class="cls-2" d="M91,206.26V211H63.35v21H58.71V208.57A2.28,2.28,0,0,1,61,206.26Z"/></g><g class="cls-1"><path class="cls-2" d="M90.94,194.46H86.42a2.28,2.28,0,0,1-2.27-2.31V173.42a2.28,2.28,0,0,1,2.27-2.31H91m0,4.62H88.79v14h2.15Z"/><path class="cls-2" d="M91,232H67v-4.7H91v-7H76.43v-4.7H91"/><path class="cls-2" d="M91,258.18H86.34V234.84H91Z"/><path class="cls-2" d="M90.94,203.86H76.23v-4.65l14.71-.05Z"/></g><g class="cls-1"><path class="cls-2" d="M76.23,262.89H90.94v4.7H76.23Z"/></g><path class="cls-3" d="M23.18,158.66v14.11H18.54V161.06H13.9v9.32a2.27,2.27,0,0,1-2.28,2.3H2.34a2.28,2.28,0,0,1-2.28-2.3v-14H4.71v11.72H9.35v-9.41a2.28,2.28,0,0,1,2.27-2.31h9.2A2.35,2.35,0,0,1,23.18,158.66Z"/><path class="cls-3" d="M23.78,181.09H19.14v-4.7h4.64Z"/><path class="cls-3" d="M13.9,181.09H0v-4.7H13.9Z"/><path class="cls-3" d="M90.94,307.18H86.42a2.28,2.28,0,0,1-2.27-2.31V286.14a2.28,2.28,0,0,1,2.27-2.31H91m0,4.62H88.79v14h2.15Z"/><path class="cls-3" d="M90.9,151.15H86.39a2.28,2.28,0,0,1-2.28-2.31V130.11a2.28,2.28,0,0,1,2.28-2.31H91m0,4.62h-2.2v14H90.9Z"/><path class="cls-4" d="M90.94,0,56.2.12A111.71,111.71,0,0,0,26,23.38a113.29,113.29,0,0,0-26,48l0,37.8c0,.4,0,.44,0,.58-.18,12,30.09,31.83,30.09,31.83,13.54,8.72,20.22,11.18,22.31,19a19.59,19.59,0,0,1-.09,9.59c-2.9,13.49-15.23,19.11-32.5,33.75A211.18,211.18,0,0,0,0,223v86.71H90.94V299.54c-1.54-1.27-3.86-3.11-6.79-5.16-16.81-11.75-26.17-11-35.48-17.47-11.26-7.81-18.82-23.65-17.43-37.28,2.08-20.41,24.12-34.92,27.92-37.42C68,196.37,79.68,191.8,88.32,178c1.21-1.92,2.08-3.58,2.62-4.66V155a69.16,69.16,0,0,0-7.78-8.5c-14.91-13.74-26.78-12.25-40-22.33C39.59,121.49,27.57,112.33,25,98,21.45,78.47,37.51,59.6,51.66,50.71c16-10.06,32.61-9.26,39.28-8.55Z"/></g></g></svg>