<svg id="Layer_1" data-name="Layer 1" xmlns="http://www.w3.org/2000/svg" viewBox="0 0 1920.56 6800"><defs><style>.cls-1{fill:#0c2b44;}</style></defs><title>webtemplate</title><path class="cls-1" d="M1920,0H981.06c-43.4,34.51-107.74,87.4-182.28,155.78C589.5,347.73,418.35,554.53,349.06,636.1c-49,57.71-113,127.11-213.58,217.39C83.9,899.77,33.05,927.76,0,947.62Q-.29,1505.86-.56,2064.1c3.75-10,9.3-24.75,16.26-42.37,59.54-150.73,250.4-633.89,690.07-963.1C1191.13,695.21,1740.06,698.85,1920,707.6Z" transform="translate(0.56)"/><path class="cls-1" d="M1920,5166.23c-231-579.77-527.33-884.81-778.44-1133.78-173.32-171.84-133.13-108.3-514.73-451.47,0,0-570.2-512.79-626.51-780.55h0c-.34-.05-.4,459.83-.32,1078.49,120.6,106.34,836.45,758.45,825.78,1776.18-5.64,538.64-212.32,944-334.72,1144.91H1920Z" transform="translate(0.56)"/></svg>